<?xml version="1.0" ?><svg style="enable-background:new 0 0 24 24;" version="1.1" viewBox="0 0 24 24" xml:space="preserve" xmlns="http://www.w3.org/2000/svg" xmlns:xlink="http://www.w3.org/1999/xlink"><style type="text/css">
	.st0{opacity:0.2;fill:none;stroke:#000000;stroke-width:5.000000e-02;stroke-miterlimit:10;}
</style><g id="grid_system"/><g id="_icons"><path d="M15.7,4.2c-0.8-1.2-2.2-2-3.7-2c-1.5,0-2.9,0.8-3.7,2C7.9,4.1,7.4,4,7,4C5.1,4,3.6,5.5,3.6,7.3c0,1.8,1.5,3.3,3.4,3.3   c0.7,0,1.4-0.2,2-0.7c0.8,0.7,1.9,1.1,3,1.1c1.1,0,2.2-0.4,3-1.1c0.6,0.4,1.3,0.7,2,0.7c1.9,0,3.4-1.5,3.4-3.3   C20.4,5.5,18.9,4,17,4C16.6,4,16.1,4.1,15.7,4.2z M7,8.5C6.2,8.5,5.6,8,5.6,7.3C5.6,6.6,6.2,6,7,6c0.2,0,0.4,0,0.5,0.1   c0,0.2,0,0.4,0,0.5c0,0.3,0,0.5,0.1,0.8c0,0.1,0,0.1,0,0.2c0,0.2,0.1,0.4,0.2,0.6c0,0,0,0.1,0,0.1C7.6,8.5,7.3,8.5,7,8.5z M12,9   c-0.9,0-1.6-0.4-2.1-1.1C9.6,7.5,9.5,7.1,9.5,6.6c0-0.2,0-0.5,0.1-0.7c0.3-1,1.3-1.7,2.4-1.7c1.1,0,2.1,0.7,2.4,1.7   c0.1,0.2,0.1,0.5,0.1,0.7c0,0.4-0.1,0.9-0.4,1.3C13.6,8.6,12.9,9,12,9z M18.4,7.3c0,0.7-0.6,1.3-1.4,1.3c-0.3,0-0.6-0.1-0.8-0.2   c0,0,0-0.1,0-0.1c0.1-0.2,0.1-0.4,0.2-0.5c0-0.1,0-0.1,0.1-0.2c0-0.3,0.1-0.5,0.1-0.8c0-0.2,0-0.4,0-0.5C16.6,6,16.8,6,17,6   C17.8,6,18.4,6.6,18.4,7.3z"/><path d="M21.6,14c-0.4-1.7-1.9-3-3.5-3h-2.2c-0.9,0-1.7,0.4-2.4,1h-3c-0.7-0.6-1.5-1-2.4-1H5.9c-1.6,0-3.1,1.2-3.5,3l-0.3,1.2   c-0.2,0.7,0,1.5,0.4,2.1c0.4,0.5,1,0.8,1.6,0.8h0l0,0.1c-0.3,0.9-0.1,1.9,0.5,2.7C5.2,21.6,6,22,7,22H17c0.9,0,1.8-0.4,2.3-1.2   c0.6-0.8,0.8-1.8,0.5-2.7l0-0.1h0c0.6,0,1.2-0.3,1.6-0.8c0.4-0.6,0.6-1.3,0.4-2.1L21.6,14z M4.1,16C4,15.9,4,15.8,4,15.6l0.3-1.2   C4.5,13.6,5.2,13,5.9,13h1c0,0-0.1,0.1-0.1,0.1c-0.1,0.1-0.2,0.2-0.4,0.3c-0.1,0.1-0.2,0.2-0.3,0.3c-0.1,0.1-0.2,0.2-0.3,0.3   c-0.1,0.1-0.2,0.2-0.3,0.4c-0.1,0.1-0.2,0.3-0.2,0.4c-0.1,0.1-0.2,0.3-0.2,0.4c-0.1,0.1-0.1,0.3-0.2,0.4c0,0.1-0.1,0.2-0.1,0.3   L4.1,16z M17.8,19.6C17.7,19.8,17.4,20,17,20H7c-0.4,0-0.6-0.2-0.7-0.4C6,19.4,6,19,6,18.7l0.4-1.4c0,0,0,0,0,0l0.1-0.5   C7,15.1,8.4,14,10,14h0H14c1.6,0,3,1.1,3.5,2.8l0.1,0.5c0,0,0,0,0,0l0.4,1.4C18,19,18,19.4,17.8,19.6z M19.9,16   C19.9,16,19.9,16,19.9,16l-0.6,0c0-0.1-0.1-0.2-0.1-0.3c-0.1-0.2-0.1-0.3-0.2-0.4c-0.1-0.1-0.1-0.3-0.2-0.4   c-0.1-0.1-0.2-0.3-0.3-0.4c-0.1-0.1-0.2-0.2-0.3-0.3c-0.1-0.1-0.2-0.3-0.3-0.4c-0.1-0.1-0.2-0.2-0.3-0.3c-0.1-0.1-0.3-0.2-0.4-0.3   c0,0-0.1-0.1-0.1-0.1h1c0.7,0,1.4,0.6,1.6,1.4l0.3,1.2C20,15.8,20,15.9,19.9,16z"/></g></svg>