<?xml version="1.0" ?><!DOCTYPE svg  PUBLIC '-//W3C//DTD SVG 1.1//EN'  'http://www.w3.org/Graphics/SVG/1.1/DTD/svg11.dtd'><svg enable-background="new 0 0 512 512" height="512px" id="Layer_1" version="1.1" viewBox="0 0 512 512" width="512px" xml:space="preserve" xmlns="http://www.w3.org/2000/svg" xmlns:xlink="http://www.w3.org/1999/xlink"><path d="M123.39,391.952h17.284v3.476c0,31.932,28.304,57.902,63.093,57.902h27.983h133.544h12.006H388.6  c34.799,0,63.104-25.971,63.104-57.902V177.952c0-31.923-28.305-57.903-63.104-57.903h-17.283v-3.475  c0-31.935-28.295-57.904-63.094-57.904h-23.305H151.373H123.39c-34.789,0-63.093,25.97-63.093,57.904v217.474  C60.297,365.97,88.601,391.952,123.39,391.952z M388.6,139.004c23.445,0,42.445,17.438,42.445,38.948v217.476  c0,21.509-19,38.949-42.445,38.949h-11.299h-12.006H231.751h-27.983c-23.436,0-42.435-17.44-42.435-38.949v-3.476v-18.955V177.952  c0-21.511,18.999-38.948,42.435-38.948h27.983h118.917h14.627h6.021H388.6z M80.944,116.574c0-21.511,18.999-38.949,42.446-38.949  h27.983h133.545h23.305c23.447,0,42.445,17.438,42.445,38.949v3.475H231.751h-27.983c-34.789,0-63.093,25.98-63.093,57.903v195.045  H123.39c-23.447,0-42.446-17.449-42.446-38.949V116.574z"/><path d="M196.708,198.035c-4.537,0-8.21,3.674-8.21,8.211c0,4.536,3.673,8.21,8.21,8.21h164.228c4.537,0,8.211-3.674,8.211-8.21  c0-4.537-3.674-8.211-8.211-8.211H196.708z"/><path d="M222.655,262.036c0,4.537,3.685,8.211,8.222,8.211H384.77c4.537,0,8.223-3.674,8.223-8.211s-3.686-8.221-8.223-8.221  H230.877C226.34,253.815,222.655,257.499,222.655,262.036z"/><path d="M349.153,317.815c0-4.537-3.676-8.21-8.211-8.21H196.708c-4.537,0-8.21,3.673-8.21,8.21c0,4.536,3.673,8.223,8.21,8.223  h144.234C345.477,326.038,349.153,322.351,349.153,317.815z"/><path d="M384.77,365.395H249.61c-4.536,0-8.21,3.675-8.21,8.212c0,4.536,3.674,8.209,8.21,8.209h135.16  c4.537,0,8.223-3.673,8.223-8.209C392.992,369.07,389.307,365.395,384.77,365.395z"/></svg>